<svg width="15" height="15" viewBox="0 0 15 15" fill="none" xmlns="http://www.w3.org/2000/svg">
<path d="M12.6451 8.09037L8.56179 12.1737C8.47662 12.2589 8.3646 12.302 8.2526 12.302C8.1406 12.302 8.02859 12.2594 7.94342 12.1737C7.7725 12.0028 7.7725 11.7257 7.94342 11.5548L11.2801 8.21811H1.83594C1.59444 8.21811 1.39844 8.02211 1.39844 7.78061C1.39844 7.53911 1.59444 7.34311 1.83594 7.34311H11.2795L7.94285 4.00643C7.77193 3.83551 7.77193 3.55844 7.94285 3.38753C8.11377 3.21661 8.39087 3.21661 8.56179 3.38753L12.6451 7.47086C12.816 7.64294 12.816 7.91945 12.6451 8.09037Z" fill="#2E2E2E"/>
</svg>
