<svg width="12" height="12" viewBox="0 0 12 12" fill="none" xmlns="http://www.w3.org/2000/svg">
<path d="M1.1665 8.59149L2.9973 6.26262C3.51644 5.60224 4.50952 5.58063 5.05689 6.21781L6.6665 8.09149M5.27653 6.47348C5.96797 5.59393 6.9314 4.34786 6.99407 4.26678L7.00073 4.25827C7.5208 3.60214 8.51072 3.58203 9.05689 4.21781L10.6665 6.09149M2.49984 1.09149H9.49984C10.2362 1.09149 10.8332 1.68845 10.8332 2.42482V9.42482C10.8332 10.1612 10.2362 10.7582 9.49984 10.7582H2.49984C1.76346 10.7582 1.1665 10.1612 1.1665 9.42482V2.42483C1.1665 1.68845 1.76346 1.09149 2.49984 1.09149Z" stroke="#667085" stroke-width="1.5" stroke-linecap="round" stroke-linejoin="round"/>
</svg>
