<svg width="12" height="12" viewBox="0 0 12 12" fill="none" xmlns="http://www.w3.org/2000/svg">
<path d="M1.1665 2.09149L2.1665 1.09149V4.75816M2.1665 4.75816H1.1665M2.1665 4.75816H2.83317M6.83316 7.42482H5.77066C5.2835 7.42482 5.01198 6.88208 5.27036 6.4964C5.30219 6.44889 5.34725 6.41224 5.39487 6.38055L6.59477 5.58213C6.64239 5.55044 6.6873 5.51364 6.7198 5.46658C7.01673 5.03671 6.71403 4.42482 6.16822 4.42482H5.1665M9.1665 7.75816H10.1308C10.9537 7.75816 11.0997 9.01654 10.3399 9.22859C10.3031 9.23886 10.2645 9.24296 10.2263 9.2443L9.83317 9.25816L10.2263 9.27201C10.2645 9.27336 10.3031 9.27746 10.3399 9.28773C11.0997 9.49978 10.9537 10.7582 10.1308 10.7582H9.1665" stroke="#667085" stroke-width="1.5" stroke-linecap="round" stroke-linejoin="round"/>
</svg>
