<svg width="11" height="11" viewBox="0 0 11 11" fill="none" xmlns="http://www.w3.org/2000/svg">
<path d="M4.49984 1.92483H10.1665M4.49984 5.92482H10.1665M4.49984 9.92482H10.1665M2.33317 1.92483C2.33317 2.10892 2.18393 2.25816 1.99984 2.25816C1.81574 2.25816 1.6665 2.10892 1.6665 1.92483C1.6665 1.74073 1.81574 1.59149 1.99984 1.59149C2.18393 1.59149 2.33317 1.74073 2.33317 1.92483ZM2.33317 5.92482C2.33317 6.10892 2.18393 6.25816 1.99984 6.25816C1.81574 6.25816 1.6665 6.10892 1.6665 5.92482C1.6665 5.74073 1.81574 5.59149 1.99984 5.59149C2.18393 5.59149 2.33317 5.74073 2.33317 5.92482ZM2.33317 9.92482C2.33317 10.1089 2.18393 10.2582 1.99984 10.2582C1.81574 10.2582 1.6665 10.1089 1.6665 9.92482C1.6665 9.74073 1.81574 9.59149 1.99984 9.59149C2.18393 9.59149 2.33317 9.74073 2.33317 9.92482Z" stroke="#667085" stroke-width="1.5" stroke-linecap="round" stroke-linejoin="round"/>
</svg>
